<?xml version="1.0" encoding="utf-8"?>
<svg width="32" height="32" viewBox="0 0 512 512" fill="none" xmlns="http://www.w3.org/2000/svg">
  <defs>
    <linearGradient id="hatGrad" x1="0%" y1="0%" x2="100%" y2="100%">
      <stop offset="0" stop-color="#818cf8"/>
      <stop offset="1" stop-color="#4f46e5"/>
    </linearGradient>
    <linearGradient id="robeGrad" x1="0%" y1="0%" x2="100%" y2="100%">
      <stop offset="0" stop-color="#a78bfa"/>
      <stop offset="1" stop-color="#6d28d9"/>
    </linearGradient>
  </defs>
  <rect x="341" y="139" width="16" height="240" rx="8" fill="#78350f"/>
  <circle cx="349" cy="119" r="28" fill="#fbbf24"/>
  <path d="M 313 261 L 353 306 L 331 326 L 288 276 L 313 261 Z" fill="#6d28d9"/>
  <path d="M 199 260 L 159 310 L 189 325 L 224 275 L 199 260 Z" fill="#6d28d9"/>
  <path d="M 160 380 L 200 260 L 312 260 L 352 380 L 160 380 Z" fill="url(#robeGrad)"/>
  <circle cx="165" cy="323" r="12" fill="#fed7aa"/>
  <circle cx="346" cy="320" r="12" fill="#fed7aa"/>
  <circle cx="256" cy="214" r="55" fill="#fed7aa"/>
  <circle cx="236" cy="209" r="5" fill="#1e293b"/>
  <circle cx="276" cy="209" r="5" fill="#1e293b"/>
  <path d="M 251 218 C 254.16 224.425 257.21 226.22 261 218" stroke="#f97316" stroke-width="4" stroke-linecap="round" fill="none"/>
  <path d="M 225 238 C 245.667 241.333 266.333 241.333 287 238 C 265.921 380.711 245.204 396.3 225 238" fill="#e2e8f0"/>
  <path d="M 204.268 167.467 L 256 52 L 311.819 167.342 L 204.268 167.467 Z" fill="url(#hatGrad)"/>
  <ellipse cx="256" cy="177" rx="72.168" ry="18" fill="#4f46e5"/>
  <g transform="matrix(1.3, 0, 0, 1.3, 256, 99)">
    <path d="M 0 1.842 L 3.5 10.842 L 12 10.842 L 5 15.842 L 8 24.842 L 0 18.842 L -8 24.842 L -5 15.842 L -12 10.842 L -3.5 10.842 L 0 1.842 Z" fill="#fbbf24"/>
  </g>
</svg>
